<svg width="246" height="116" viewBox="0 0 246 116" fill="none" xmlns="http://www.w3.org/2000/svg">
<g clip-path="url(#clip0_2_2)">
<path d="M101.05 27.42H117.93V30.55H104.46V38.76H117.23V41.89H104.46V50.21H117.93V53.34H101.05V27.41V27.42Z" fill="#25385F"/>
<path d="M120.02 34.59H123.19V36.92C123.72 36.04 124.45 35.36 125.37 34.88C126.29 34.4 127.3 34.17 128.41 34.17C129.69 34.17 130.85 34.48 131.91 35.09C132.97 35.7 133.77 36.53 134.33 37.58C134.93 36.49 135.75 35.65 136.78 35.06C137.81 34.47 138.95 34.17 140.21 34.17C141.47 34.17 142.66 34.48 143.73 35.09C144.8 35.7 145.64 36.55 146.27 37.61C146.9 38.68 147.21 39.87 147.21 41.19V53.34H143.94V42.24C143.94 40.71 143.54 39.5 142.74 38.62C141.94 37.74 140.9 37.3 139.62 37.3C138.34 37.3 137.27 37.75 136.45 38.64C135.64 39.53 135.23 40.73 135.23 42.24V53.34H131.96V42.24C131.96 40.71 131.56 39.5 130.78 38.62C129.99 37.74 128.95 37.3 127.65 37.3C126.35 37.3 125.32 37.75 124.5 38.64C123.68 39.53 123.26 40.73 123.26 42.24V53.34H120.02V34.58V34.59Z" fill="#25385F"/>
<path d="M153.89 52.48C152.45 51.62 151.33 50.44 150.51 48.95C149.7 47.45 149.29 45.78 149.29 43.92C149.29 42.06 149.69 40.39 150.49 38.91C151.29 37.43 152.38 36.27 153.76 35.43C155.14 34.6 156.69 34.18 158.41 34.18C160.13 34.18 161.76 34.6 163.09 35.43C164.42 36.27 165.45 37.37 166.15 38.75C166.86 40.13 167.21 41.61 167.21 43.19C167.21 43.72 167.15 44.3 167.04 44.93H152.7C152.75 46.11 153.05 47.15 153.6 48.03C154.16 48.91 154.88 49.6 155.78 50.08C156.67 50.57 157.65 50.81 158.72 50.81C160.99 50.81 162.75 49.78 163.98 47.71L166.69 49.1C166.09 50.45 165.07 51.56 163.63 52.44C162.19 53.32 160.54 53.76 158.69 53.76C156.84 53.76 155.32 53.33 153.89 52.47V52.48ZM163.7 42.14C163.65 40.68 163.13 39.47 162.12 38.5C161.11 37.54 159.88 37.06 158.41 37.06C156.94 37.06 155.73 37.52 154.69 38.44C153.65 39.36 153.01 40.59 152.78 42.15H163.71L163.7 42.14Z" fill="#25385F"/>
<path d="M169.69 34.59H172.86V36.82C173.83 35.2 175.49 34.38 177.84 34.38H178.99V37.44H177.35C176 37.44 174.93 37.86 174.13 38.69C173.33 39.53 172.93 40.69 172.93 42.17V53.34H169.69V34.58V34.59Z" fill="#25385F"/>
<path d="M182.04 52.42C180.65 51.53 179.65 50.31 179.05 48.78L181.66 47.46C182.19 48.55 182.92 49.41 183.85 50.04C184.78 50.67 185.79 50.98 186.88 50.98C187.97 50.98 188.78 50.74 189.46 50.25C190.13 49.76 190.47 49.13 190.47 48.34C190.47 47.55 190.17 46.95 189.57 46.48C188.97 46 188.32 45.72 187.62 45.63L184.8 45.25C183.13 44.83 181.88 44.14 181.04 43.16C180.2 42.19 179.79 41.04 179.79 39.71C179.79 38.62 180.07 37.66 180.64 36.82C181.21 35.99 182 35.34 183.01 34.87C184.02 34.41 185.14 34.17 186.37 34.17C187.99 34.17 189.45 34.58 190.74 35.39C192.03 36.2 192.95 37.33 193.51 38.77L190.93 40.09C190.47 39.14 189.82 38.38 189 37.83C188.18 37.27 187.26 37 186.27 37C185.28 37 184.55 37.23 183.97 37.7C183.39 38.16 183.1 38.77 183.1 39.51C183.1 40.25 183.37 40.89 183.92 41.34C184.46 41.79 185.06 42.08 185.71 42.19L188.81 42.61C190.36 43.03 191.58 43.74 192.45 44.75C193.32 45.76 193.75 46.93 193.75 48.25C193.75 49.32 193.46 50.27 192.88 51.1C192.3 51.94 191.49 52.59 190.44 53.07C189.4 53.55 188.2 53.78 186.86 53.78C185.05 53.78 183.45 53.33 182.06 52.44L182.04 52.42Z" fill="#25385F"/>
<path d="M200.19 52.49C198.72 51.64 197.55 50.47 196.69 48.97C195.83 47.47 195.4 45.8 195.4 43.94C195.4 42.08 195.82 40.44 196.67 38.95C197.52 37.45 198.68 36.28 200.15 35.43C201.62 34.58 203.27 34.16 205.07 34.16C206.87 34.16 208.49 34.58 209.96 35.43C211.43 36.28 212.59 37.44 213.44 38.93C214.29 40.42 214.71 42.09 214.71 43.94C214.71 45.79 214.28 47.5 213.42 48.99C212.56 50.48 211.39 51.64 209.92 52.49C208.45 53.34 206.83 53.76 205.06 53.76C203.29 53.76 201.64 53.34 200.17 52.49H200.19ZM199.63 47.36C200.17 48.38 200.93 49.18 201.89 49.76C202.85 50.34 203.91 50.63 205.07 50.63C206.23 50.63 207.25 50.34 208.2 49.76C209.15 49.18 209.9 48.38 210.44 47.36C210.98 46.34 211.26 45.2 211.26 43.95C211.26 42.7 210.99 41.57 210.44 40.56C209.9 39.55 209.15 38.76 208.2 38.18C207.25 37.6 206.2 37.31 205.07 37.31C203.94 37.31 202.85 37.6 201.89 38.18C200.93 38.76 200.17 39.56 199.63 40.56C199.09 41.57 198.81 42.7 198.81 43.95C198.81 45.2 199.08 46.34 199.63 47.36Z" fill="#25385F"/>
<path d="M217.19 34.59H220.36V36.89C220.92 36.01 221.66 35.34 222.59 34.87C223.52 34.41 224.56 34.17 225.72 34.17C227.04 34.17 228.24 34.48 229.3 35.09C230.37 35.71 231.21 36.55 231.82 37.61C232.43 38.68 232.74 39.87 232.74 41.19V53.34H229.47V42.24C229.47 40.71 229.06 39.5 228.23 38.62C227.41 37.74 226.32 37.3 224.98 37.3C223.64 37.3 222.54 37.75 221.69 38.64C220.84 39.53 220.42 40.73 220.42 42.24V53.34H217.18V34.58L217.19 34.59Z" fill="#25385F"/>
<path d="M106.46 86.91C104.52 85.76 103.01 84.17 101.92 82.14C100.83 80.11 100.28 77.82 100.28 75.27C100.28 72.72 100.82 70.42 101.92 68.38C103.01 66.34 104.52 64.74 106.46 63.59C108.4 62.44 110.57 61.87 112.99 61.87C114.71 61.87 116.28 62.18 117.72 62.79C119.16 63.41 120.38 64.21 121.37 65.21C122.37 66.21 123.09 67.29 123.53 68.45L120.4 69.88C119.77 68.39 118.82 67.22 117.53 66.35C116.24 65.48 114.73 65.05 112.99 65.05C111.25 65.05 109.57 65.48 108.17 66.34C106.77 67.2 105.67 68.41 104.88 69.96C104.09 71.51 103.7 73.29 103.7 75.29C103.7 77.29 104.09 79.05 104.88 80.6C105.67 82.14 106.76 83.34 108.17 84.2C109.57 85.06 111.18 85.49 112.99 85.49C114.8 85.49 116.24 85.06 117.53 84.19C118.82 83.32 119.78 82.14 120.4 80.66L123.53 82.09C123.09 83.27 122.37 84.36 121.37 85.36C120.37 86.36 119.15 87.16 117.72 87.76C116.28 88.36 114.7 88.67 112.99 88.67C110.58 88.67 108.4 88.1 106.46 86.95V86.91Z" fill="#25385F"/>
<path d="M129.71 87.37C128.24 86.52 127.07 85.35 126.21 83.85C125.35 82.35 124.92 80.68 124.92 78.82C124.92 76.96 125.34 75.32 126.19 73.83C127.04 72.33 128.2 71.16 129.67 70.31C131.14 69.46 132.79 69.04 134.59 69.04C136.39 69.04 138.01 69.46 139.48 70.31C140.95 71.16 142.11 72.32 142.96 73.81C143.81 75.3 144.23 76.97 144.23 78.82C144.23 80.67 143.8 82.38 142.94 83.87C142.08 85.36 140.91 86.52 139.44 87.37C137.97 88.22 136.35 88.64 134.58 88.64C132.81 88.64 131.16 88.22 129.69 87.37H129.71ZM129.16 82.23C129.7 83.25 130.46 84.05 131.42 84.63C132.38 85.21 133.44 85.5 134.6 85.5C135.76 85.5 136.78 85.21 137.73 84.63C138.68 84.05 139.43 83.25 139.97 82.23C140.51 81.21 140.79 80.07 140.79 78.82C140.79 77.57 140.52 76.44 139.97 75.43C139.43 74.42 138.68 73.63 137.73 73.05C136.78 72.47 135.73 72.18 134.6 72.18C133.47 72.18 132.38 72.47 131.42 73.05C130.46 73.63 129.7 74.43 129.16 75.43C128.62 76.44 128.34 77.57 128.34 78.82C128.34 80.07 128.61 81.21 129.16 82.23Z" fill="#25385F"/>
<path d="M147.69 87.16C146.53 86.17 145.95 84.89 145.95 83.31C145.95 81.73 146.45 80.5 147.46 79.46C148.47 78.43 150.01 77.74 152.07 77.39L158.47 76.35V75.48C158.47 74.46 158.09 73.63 157.32 72.99C156.55 72.35 155.57 72.03 154.36 72.03C153.29 72.03 152.35 72.3 151.52 72.85C150.69 73.4 150.09 74.12 149.69 75.02L146.87 73.56C147.4 72.26 148.38 71.18 149.79 70.32C151.2 69.46 152.75 69.03 154.42 69.03C155.84 69.03 157.09 69.3 158.2 69.85C159.3 70.39 160.16 71.15 160.78 72.13C161.39 73.1 161.7 74.22 161.7 75.47V88.21H158.53V85.77C157.86 86.65 156.97 87.35 155.87 87.86C154.77 88.37 153.54 88.63 152.2 88.63C150.34 88.63 148.84 88.14 147.68 87.15L147.69 87.16ZM150.28 85.12C150.89 85.63 151.67 85.89 152.59 85.89C153.73 85.89 154.74 85.64 155.64 85.14C156.53 84.64 157.23 83.96 157.73 83.1C158.23 82.24 158.48 81.29 158.48 80.25V79.07L152.81 80.01C150.51 80.4 149.36 81.47 149.36 83.21C149.36 83.98 149.67 84.61 150.28 85.12Z" fill="#25385F"/>
<path d="M168.75 87.35C167.29 86.49 166.15 85.31 165.34 83.82C164.53 82.32 164.12 80.66 164.12 78.82C164.12 76.98 164.53 75.29 165.34 73.81C166.15 72.33 167.28 71.16 168.73 70.31C170.18 69.46 171.83 69.04 173.69 69.04C175.55 69.04 177.15 69.51 178.65 70.45C180.15 71.39 181.21 72.6 181.83 74.09L178.91 75.48C178.47 74.48 177.78 73.68 176.84 73.08C175.9 72.48 174.85 72.17 173.69 72.17C172.53 72.17 171.52 72.46 170.57 73.04C169.63 73.62 168.89 74.42 168.36 75.42C167.83 76.43 167.56 77.57 167.56 78.85C167.56 80.13 167.83 81.23 168.38 82.24C168.92 83.25 169.66 84.04 170.59 84.62C171.52 85.2 172.55 85.49 173.69 85.49C174.83 85.49 175.93 85.19 176.86 84.58C177.79 83.98 178.47 83.15 178.91 82.11L181.83 83.57C181.23 85.03 180.17 86.24 178.66 87.19C177.15 88.14 175.49 88.62 173.68 88.62C171.87 88.62 170.2 88.19 168.74 87.33L168.75 87.35Z" fill="#25385F"/>
<path d="M184.23 61.87H187.47V71.65C188.03 70.82 188.76 70.17 189.68 69.72C190.6 69.27 191.62 69.04 192.76 69.04C194.08 69.04 195.28 69.35 196.34 69.96C197.41 70.58 198.25 71.42 198.86 72.48C199.47 73.55 199.78 74.74 199.78 76.06V88.21H196.51V77.11C196.51 75.58 196.09 74.37 195.26 73.49C194.43 72.61 193.35 72.17 192.02 72.17C190.69 72.17 189.61 72.62 188.75 73.51C187.89 74.4 187.46 75.6 187.46 77.11V88.21H184.22V61.86L184.23 61.87Z" fill="#25385F"/>
<path d="M202.85 62.99C203.22 62.62 203.71 62.43 204.31 62.43C204.91 62.43 205.4 62.62 205.77 62.99C206.14 63.36 206.33 63.85 206.33 64.45C206.33 65.05 206.14 65.54 205.77 65.91C205.4 66.28 204.91 66.47 204.31 66.47C203.71 66.47 203.22 66.28 202.85 65.91C202.48 65.54 202.29 65.05 202.29 64.45C202.29 63.85 202.48 63.36 202.85 62.99ZM202.68 69.46H205.92V88.22H202.68V69.46Z" fill="#25385F"/>
<path d="M209.19 69.46H212.36V71.76C212.92 70.88 213.66 70.21 214.59 69.74C215.52 69.28 216.56 69.04 217.72 69.04C219.04 69.04 220.24 69.35 221.3 69.96C222.37 70.58 223.21 71.42 223.82 72.48C224.43 73.55 224.74 74.74 224.74 76.06V88.21H221.47V77.11C221.47 75.58 221.06 74.37 220.23 73.49C219.41 72.61 218.32 72.17 216.98 72.17C215.64 72.17 214.54 72.62 213.69 73.51C212.84 74.4 212.42 75.6 212.42 77.11V88.21H209.18V69.45L209.19 69.46Z" fill="#25385F"/>
<path d="M231.38 94.54C229.88 93.65 228.82 92.46 228.2 90.97L231.23 89.58C231.58 90.51 232.22 91.27 233.14 91.86C234.07 92.45 235.21 92.75 236.55 92.75C238.2 92.75 239.57 92.28 240.66 91.34C241.75 90.4 242.3 89.09 242.3 87.42V84.81C241.6 85.76 240.71 86.49 239.62 87C238.53 87.51 237.35 87.77 236.07 87.77C234.33 87.77 232.76 87.36 231.37 86.53C229.98 85.71 228.88 84.58 228.08 83.15C227.28 81.72 226.88 80.14 226.88 78.4C226.88 76.66 227.27 75.08 228.06 73.65C228.85 72.22 229.94 71.1 231.33 70.27C232.72 69.45 234.29 69.03 236.03 69.03C237.33 69.03 238.52 69.29 239.61 69.81C240.7 70.33 241.63 71.08 242.4 72.06V69.45H245.57V87.41C245.57 89.03 245.19 90.48 244.42 91.76C243.65 93.04 242.59 94.04 241.22 94.77C239.85 95.5 238.31 95.87 236.59 95.87C234.62 95.87 232.88 95.42 231.39 94.53L231.38 94.54ZM231.06 81.54C231.58 82.49 232.31 83.25 233.23 83.8C234.16 84.36 235.19 84.63 236.33 84.63C237.47 84.63 238.42 84.35 239.34 83.8C240.26 83.24 240.98 82.49 241.5 81.54C242.02 80.59 242.28 79.54 242.28 78.41C242.28 77.28 242.02 76.23 241.5 75.28C240.98 74.33 240.26 73.57 239.34 73.02C238.42 72.46 237.42 72.19 236.33 72.19C235.24 72.19 234.17 72.47 233.25 73.02C232.33 73.58 231.61 74.33 231.07 75.28C230.54 76.23 230.27 77.28 230.27 78.41C230.27 79.54 230.53 80.59 231.05 81.54H231.06Z" fill="#25385F"/>
<path d="M44.4143 72.5912L49.2778 42.6183C49.504 41.3836 50.2675 40.3185 51.3702 39.7153L78.3552 25.0023C81.2959 23.3905 84.8399 25.7563 84.4723 29.0929L79.5334 86.2203C79.2223 89.0762 76.1779 90.7633 73.5954 89.5098L46.7706 76.8986C45.0929 76.088 44.075 74.4291 44.4143 72.6006V72.5912Z" fill="#FBC964"/>
<path d="M43.1041 43.0519L38.4197 73.5431C38.1935 74.7778 37.43 75.8429 36.3273 76.4461L8.64483 90.8198C5.7041 92.4316 2.16015 90.0658 2.52774 86.7292L7.98505 29.4322C8.29609 26.5763 11.3405 24.8891 13.9231 26.1427L40.7478 38.7539C42.4255 39.5645 43.4434 41.2233 43.1041 43.0519Z" fill="#5EBEF4"/>
<path d="M54.0753 115.109L19.0976 98.002C17.0052 96.8144 17.0429 93.7794 19.1636 92.639L39.9372 81.385C40.8703 80.8855 41.9825 80.9043 42.8968 81.4227L77.6859 98.0114C79.7784 99.199 79.7407 102.234 77.62 103.375L57.0349 115.147C56.1018 115.646 54.9896 115.628 54.0753 115.109Z" fill="#0AB1BD"/>
<path d="M45.2719 34.5973L10.2943 17.4902C8.20181 16.3026 8.23952 13.2676 10.3602 12.1271L31.1338 0.873183C32.067 0.373636 33.1792 0.392487 34.0934 0.910884L69.1465 17.8483C71.239 19.0359 71.2013 22.0709 69.0805 23.2114L48.2315 34.6444C47.2984 35.144 46.1862 35.1251 45.2719 34.6067V34.5973Z" fill="#FB9596"/>
</g>
<defs>
<clipPath id="clip0_2_2">
<rect width="245.56" height="115.52" fill="white"/>
</clipPath>
</defs>
</svg>
