<svg width="82" height="116" viewBox="0 0 82 116" fill="none" xmlns="http://www.w3.org/2000/svg">
<path d="M41.913 72.5912L46.7765 42.6183C47.0027 41.3836 47.7661 40.3185 48.8689 39.7153L75.8539 25.0023C78.7946 23.3905 82.3385 25.7563 81.9709 29.0929L77.032 86.2203C76.721 89.0762 73.6766 90.7633 71.094 89.5098L44.2693 76.8986C42.5916 76.088 41.5736 74.4291 41.913 72.6006V72.5912Z" fill="#FBC964"/>
<path d="M40.6028 43.0519L35.9184 73.5431C35.6922 74.7778 34.9287 75.8429 33.8259 76.4461L6.14349 90.8198C3.20276 92.4316 -0.341194 90.0658 0.0263971 86.7292L5.48371 29.4322C5.79475 26.5763 8.83916 24.8891 11.4217 26.1427L38.2464 38.7539C39.9242 39.5645 40.9421 41.2233 40.6028 43.0519Z" fill="#5EBEF4"/>
<path d="M51.574 115.109L16.5963 98.002C14.5038 96.8144 14.5415 93.7794 16.6622 92.639L37.4358 81.385C38.369 80.8855 39.4812 80.9043 40.3954 81.4227L75.1846 98.0114C77.277 99.199 77.2393 102.234 75.1186 103.375L54.5335 115.147C53.6004 115.646 52.4882 115.628 51.574 115.109Z" fill="#0AB1BD"/>
<path d="M42.7706 34.5973L7.79291 17.4902C5.70047 16.3026 5.73817 13.2676 7.85889 12.1271L28.6325 0.873183C29.5656 0.373636 30.6778 0.392487 31.5921 0.910884L66.6452 17.8483C68.7376 19.0359 68.6999 22.0709 66.5792 23.2114L45.7302 34.6444C44.7971 35.144 43.6849 35.1251 42.7706 34.6067V34.5973Z" fill="#FB9596"/>
</svg>
